<?xml version="1.0" encoding="utf-8" standalone="no"?>
<!DOCTYPE svg PUBLIC "-//W3C//DTD SVG 1.1//EN"
  "http://www.w3.org/Graphics/SVG/1.1/DTD/svg11.dtd">
<svg xmlns:xlink="http://www.w3.org/1999/xlink" width="1147.221982pt" height="218.357597pt" viewBox="0 0 1147.221982 218.357597" xmlns="http://www.w3.org/2000/svg" version="1.1">
 <metadata>
  <rdf:RDF xmlns:dc="http://purl.org/dc/elements/1.1/" xmlns:cc="http://creativecommons.org/ns#" xmlns:rdf="http://www.w3.org/1999/02/22-rdf-syntax-ns#">
   <cc:Work>
    <dc:type rdf:resource="http://purl.org/dc/dcmitype/StillImage"/>
    <dc:date>2025-10-01T00:39:02.628952</dc:date>
    <dc:format>image/svg+xml</dc:format>
    <dc:creator>
     <cc:Agent>
      <dc:title>Matplotlib v3.10.6, https://matplotlib.org/</dc:title>
     </cc:Agent>
    </dc:creator>
   </cc:Work>
  </rdf:RDF>
 </metadata>
 <defs>
  <style type="text/css">*{stroke-linejoin: round; stroke-linecap: butt}</style>
 </defs>
 <g id="figure_1">
  <g id="patch_1">
   <path d="M 0 218.357597 
L 1147.221982 218.357597 
L 1147.221982 0 
L 0 0 
z
" style="fill: #ffffff"/>
  </g>
  <g id="axes_1">
   <g id="line2d_1">
    <path d="M 64.609196 44.2832 
L 1135.386582 44.2832 
" clip-path="url(#p2b678fe623)" style="fill: none; stroke: #000000; stroke-width: 2; stroke-linecap: square"/>
   </g>
   <g id="line2d_2">
    <path d="M 64.609196 90.637199 
L 1135.386582 90.637199 
" clip-path="url(#p2b678fe623)" style="fill: none; stroke: #000000; stroke-width: 2; stroke-linecap: square"/>
   </g>
   <g id="line2d_3">
    <path d="M 64.609196 136.991198 
L 1135.386582 136.991198 
" clip-path="url(#p2b678fe623)" style="fill: none; stroke: #000000; stroke-width: 2; stroke-linecap: square"/>
   </g>
   <g id="line2d_4">
    <path d="M 73.879996 187.980598 
L 78.515396 178.709798 
" clip-path="url(#p2b678fe623)" style="fill: none; stroke: #778899; stroke-width: 1.5; stroke-linecap: square"/>
   </g>
   <g id="line2d_5">
    <path d="M 64.609196 181.838693 
L 1135.386582 181.838693 
" clip-path="url(#p2b678fe623)" style="fill: none; stroke: #778899; stroke-width: 2; stroke-linecap: square"/>
   </g>
   <g id="line2d_6">
    <path d="M 64.609196 184.851703 
L 1135.386582 184.851703 
" clip-path="url(#p2b678fe623)" style="fill: none; stroke: #778899; stroke-width: 2; stroke-linecap: square"/>
   </g>
   <g id="patch_2">
    <path d="M 1057.048323 172.799663 
L 1069.100363 172.799663 
L 1063.074343 181.491038 
z
" clip-path="url(#p2b678fe623)" style="fill: #778899"/>
   </g>
   <g id="patch_3">
    <path d="M 1103.402323 172.799663 
L 1115.454363 172.799663 
L 1109.428343 181.491038 
z
" clip-path="url(#p2b678fe623)" style="fill: #778899"/>
   </g>
   <g id="patch_4">
    <path d="M 59.973797 21.1062 
L -1098.876188 21.1062 
L -1098.876188 252.876197 
L 59.973797 252.876197 
z
" clip-path="url(#p2b678fe623)" style="fill: #ffffff; stroke: #ffffff; stroke-width: 1.5; stroke-linejoin: miter"/>
   </g>
   <g id="line2d_7">
    <path d="M 275.056354 136.991198 
L 275.056354 90.637199 
" clip-path="url(#p2b678fe623)" style="fill: none; stroke: #002d9c; stroke-width: 2; stroke-linecap: square"/>
   </g>
   <g id="line2d_8">
    <path d="M 367.764352 136.991198 
L 367.764352 44.2832 
" clip-path="url(#p2b678fe623)" style="fill: none; stroke: #002d9c; stroke-width: 2; stroke-linecap: square"/>
   </g>
   <g id="line2d_9">
    <path d="M 460.472351 136.991198 
L 460.472351 90.637199 
" clip-path="url(#p2b678fe623)" style="fill: none; stroke: #002d9c; stroke-width: 2; stroke-linecap: square"/>
   </g>
   <g id="line2d_10">
    <path d="M 553.18035 136.991198 
L 553.18035 44.2832 
" clip-path="url(#p2b678fe623)" style="fill: none; stroke: #002d9c; stroke-width: 2; stroke-linecap: square"/>
   </g>
   <g id="line2d_11">
    <path d="M 599.534349 90.637199 
L 599.534349 44.2832 
" clip-path="url(#p2b678fe623)" style="fill: none; stroke: #002d9c; stroke-width: 2; stroke-linecap: square"/>
   </g>
   <g id="line2d_12">
    <path d="M 692.242348 90.637199 
L 692.242348 44.2832 
" clip-path="url(#p2b678fe623)" style="fill: none; stroke: #002d9c; stroke-width: 2; stroke-linecap: square"/>
   </g>
   <g id="line2d_13">
    <path d="M 877.658346 90.637199 
L 877.658346 44.2832 
" clip-path="url(#p2b678fe623)" style="fill: none; stroke: #002d9c; stroke-width: 2; stroke-linecap: square"/>
   </g>
   <g id="line2d_14">
    <path d="M 1064.580848 44.2832 
L 1064.580848 172.799663 
" clip-path="url(#p2b678fe623)" style="fill: none; stroke: #778899; stroke-width: 2; stroke-linecap: square"/>
   </g>
   <g id="line2d_15">
    <path d="M 1061.567838 44.2832 
L 1061.567838 172.799663 
" clip-path="url(#p2b678fe623)" style="fill: none; stroke: #778899; stroke-width: 2; stroke-linecap: square"/>
   </g>
   <g id="line2d_16">
    <path d="M 1110.934848 90.637199 
L 1110.934848 172.799663 
" clip-path="url(#p2b678fe623)" style="fill: none; stroke: #778899; stroke-width: 2; stroke-linecap: square"/>
   </g>
   <g id="line2d_17">
    <path d="M 1107.921838 90.637199 
L 1107.921838 172.799663 
" clip-path="url(#p2b678fe623)" style="fill: none; stroke: #778899; stroke-width: 2; stroke-linecap: square"/>
   </g>
   <g id="patch_5">
    <path d="M 72.595991 59.348249 
L 106.684722 59.348249 
L 106.684722 29.21815 
L 72.595991 29.21815 
z
" clip-path="url(#p2b678fe623)" style="fill: #9f1853; stroke: #9f1853; stroke-width: 1.5; stroke-linejoin: miter"/>
   </g>
   <g id="patch_6">
    <path d="M 72.595991 105.702249 
L 106.684722 105.702249 
L 106.684722 75.572149 
L 72.595991 75.572149 
z
" clip-path="url(#p2b678fe623)" style="fill: #9f1853; stroke: #9f1853; stroke-width: 1.5; stroke-linejoin: miter"/>
   </g>
   <g id="patch_7">
    <path d="M 74.575306 152.056248 
L 104.705406 152.056248 
L 104.705406 121.926148 
L 74.575306 121.926148 
z
" clip-path="url(#p2b678fe623)" style="fill: #9f1853; stroke: #9f1853; stroke-width: 1.5; stroke-linejoin: miter"/>
   </g>
   <g id="patch_8">
    <path d="M 118.94999 152.056248 
L 153.038721 152.056248 
L 153.038721 121.926148 
L 118.94999 121.926148 
z
" clip-path="url(#p2b678fe623)" style="fill: #9f1853; stroke: #9f1853; stroke-width: 1.5; stroke-linejoin: miter"/>
   </g>
   <g id="patch_9">
    <path d="M 165.303989 152.056248 
L 199.39272 152.056248 
L 199.39272 121.926148 
L 165.303989 121.926148 
z
" clip-path="url(#p2b678fe623)" style="fill: #9f1853; stroke: #9f1853; stroke-width: 1.5; stroke-linejoin: miter"/>
   </g>
   <g id="patch_10">
    <path d="M 211.657989 152.056248 
L 245.74672 152.056248 
L 245.74672 121.926148 
L 211.657989 121.926148 
z
" clip-path="url(#p2b678fe623)" style="fill: #9f1853; stroke: #9f1853; stroke-width: 1.5; stroke-linejoin: miter"/>
   </g>
   <g id="patch_11">
    <path d="M 275.056354 95.156714 
C 276.254943 95.156714 277.404603 94.680509 278.252133 93.832979 
C 279.099664 92.985448 279.575869 91.835788 279.575869 90.637199 
C 279.575869 89.43861 279.099664 88.28895 278.252133 87.441419 
C 277.404603 86.593889 276.254943 86.117684 275.056354 86.117684 
C 273.857764 86.117684 272.708105 86.593889 271.860574 87.441419 
C 271.013043 88.28895 270.536839 89.43861 270.536839 90.637199 
C 270.536839 91.835788 271.013043 92.985448 271.860574 93.832979 
C 272.708105 94.680509 273.857764 95.156714 275.056354 95.156714 
z
" clip-path="url(#p2b678fe623)" style="fill: #002d9c; stroke: #002d9c; stroke-width: 1.5; stroke-linejoin: miter"/>
   </g>
   <g id="patch_12">
    <path d="M 275.056354 147.536733 
C 277.853062 147.536733 280.535601 146.425589 282.513173 144.448017 
C 284.490744 142.470446 285.601889 139.787907 285.601889 136.991198 
C 285.601889 134.19449 284.490744 131.511951 282.513173 129.534379 
C 280.535601 127.556807 277.853062 126.445663 275.056354 126.445663 
C 272.259645 126.445663 269.577106 127.556807 267.599534 129.534379 
C 265.621963 131.511951 264.510819 134.19449 264.510819 136.991198 
C 264.510819 139.787907 265.621963 142.470446 267.599534 144.448017 
C 269.577106 146.425589 272.259645 147.536733 275.056354 147.536733 
z
" clip-path="url(#p2b678fe623)" style="fill: #002d9c; stroke: #002d9c; stroke-width: 2; stroke-linejoin: miter"/>
   </g>
   <g id="patch_13">
    <path d="M 300.407356 152.056248 
L 342.41335 152.056248 
L 342.41335 121.926148 
L 300.407356 121.926148 
z
" clip-path="url(#p2b678fe623)" style="fill: #9f1853; stroke: #9f1853; stroke-width: 1.5; stroke-linejoin: miter"/>
   </g>
   <g id="patch_14">
    <path d="M 367.764352 48.802714 
C 368.962942 48.802714 370.112601 48.32651 370.960132 47.478979 
C 371.807663 46.631448 372.283867 45.481789 372.283867 44.2832 
C 372.283867 43.08461 371.807663 41.934951 370.960132 41.08742 
C 370.112601 40.239889 368.962942 39.763685 367.764352 39.763685 
C 366.565763 39.763685 365.416103 40.239889 364.568573 41.08742 
C 363.721042 41.934951 363.244837 43.08461 363.244837 44.2832 
C 363.244837 45.481789 363.721042 46.631448 364.568573 47.478979 
C 365.416103 48.32651 366.565763 48.802714 367.764352 48.802714 
z
" clip-path="url(#p2b678fe623)" style="fill: #002d9c; stroke: #002d9c; stroke-width: 1.5; stroke-linejoin: miter"/>
   </g>
   <g id="patch_15">
    <path d="M 367.764352 147.536733 
C 370.561061 147.536733 373.2436 146.425589 375.221172 144.448017 
C 377.198743 142.470446 378.309887 139.787907 378.309887 136.991198 
C 378.309887 134.19449 377.198743 131.511951 375.221172 129.534379 
C 373.2436 127.556807 370.561061 126.445663 367.764352 126.445663 
C 364.967644 126.445663 362.285105 127.556807 360.307533 129.534379 
C 358.329962 131.511951 357.218818 134.19449 357.218818 136.991198 
C 357.218818 139.787907 358.329962 142.470446 360.307533 144.448017 
C 362.285105 146.425589 364.967644 147.536733 367.764352 147.536733 
z
" clip-path="url(#p2b678fe623)" style="fill: #002d9c; stroke: #002d9c; stroke-width: 2; stroke-linejoin: miter"/>
   </g>
   <g id="patch_16">
    <path d="M 396.735602 152.056248 
L 431.501102 152.056248 
L 431.501102 121.926148 
L 396.735602 121.926148 
z
" clip-path="url(#p2b678fe623)" style="fill: #9f1853; stroke: #9f1853; stroke-width: 1.5; stroke-linejoin: miter"/>
   </g>
   <g id="patch_17">
    <path d="M 460.472351 95.156714 
C 461.670941 95.156714 462.8206 94.680509 463.668131 93.832979 
C 464.515662 92.985448 464.991866 91.835788 464.991866 90.637199 
C 464.991866 89.43861 464.515662 88.28895 463.668131 87.441419 
C 462.8206 86.593889 461.670941 86.117684 460.472351 86.117684 
C 459.273762 86.117684 458.124102 86.593889 457.276572 87.441419 
C 456.429041 88.28895 455.952836 89.43861 455.952836 90.637199 
C 455.952836 91.835788 456.429041 92.985448 457.276572 93.832979 
C 458.124102 94.680509 459.273762 95.156714 460.472351 95.156714 
z
" clip-path="url(#p2b678fe623)" style="fill: #002d9c; stroke: #002d9c; stroke-width: 1.5; stroke-linejoin: miter"/>
   </g>
   <g id="patch_18">
    <path d="M 460.472351 147.536733 
C 463.26906 147.536733 465.951599 146.425589 467.92917 144.448017 
C 469.906742 142.470446 471.017886 139.787907 471.017886 136.991198 
C 471.017886 134.19449 469.906742 131.511951 467.92917 129.534379 
C 465.951599 127.556807 463.26906 126.445663 460.472351 126.445663 
C 457.675643 126.445663 454.993104 127.556807 453.015532 129.534379 
C 451.03796 131.511951 449.926816 134.19449 449.926816 136.991198 
C 449.926816 139.787907 451.03796 142.470446 453.015532 144.448017 
C 454.993104 146.425589 457.675643 147.536733 460.472351 147.536733 
z
" clip-path="url(#p2b678fe623)" style="fill: #002d9c; stroke: #002d9c; stroke-width: 2; stroke-linejoin: miter"/>
   </g>
   <g id="patch_19">
    <path d="M 489.443601 105.702249 
L 524.2091 105.702249 
L 524.2091 75.572149 
L 489.443601 75.572149 
z
" clip-path="url(#p2b678fe623)" style="fill: #9f1853; stroke: #9f1853; stroke-width: 1.5; stroke-linejoin: miter"/>
   </g>
   <g id="patch_20">
    <path d="M 485.823353 152.056248 
L 527.829348 152.056248 
L 527.829348 121.926148 
L 485.823353 121.926148 
z
" clip-path="url(#p2b678fe623)" style="fill: #9f1853; stroke: #9f1853; stroke-width: 1.5; stroke-linejoin: miter"/>
   </g>
   <g id="patch_21">
    <path d="M 553.18035 48.802714 
C 554.378939 48.802714 555.528599 48.32651 556.37613 47.478979 
C 557.22366 46.631448 557.699865 45.481789 557.699865 44.2832 
C 557.699865 43.08461 557.22366 41.934951 556.37613 41.08742 
C 555.528599 40.239889 554.378939 39.763685 553.18035 39.763685 
C 551.981761 39.763685 550.832101 40.239889 549.98457 41.08742 
C 549.13704 41.934951 548.660835 43.08461 548.660835 44.2832 
C 548.660835 45.481789 549.13704 46.631448 549.98457 47.478979 
C 550.832101 48.32651 551.981761 48.802714 553.18035 48.802714 
z
" clip-path="url(#p2b678fe623)" style="fill: #002d9c; stroke: #002d9c; stroke-width: 1.5; stroke-linejoin: miter"/>
   </g>
   <g id="patch_22">
    <path d="M 553.18035 147.536733 
C 555.977059 147.536733 558.659598 146.425589 560.637169 144.448017 
C 562.614741 142.470446 563.725885 139.787907 563.725885 136.991198 
C 563.725885 134.19449 562.614741 131.511951 560.637169 129.534379 
C 558.659598 127.556807 555.977059 126.445663 553.18035 126.445663 
C 550.383641 126.445663 547.701102 127.556807 545.723531 129.534379 
C 543.745959 131.511951 542.634815 134.19449 542.634815 136.991198 
C 542.634815 139.787907 543.745959 142.470446 545.723531 144.448017 
C 547.701102 146.425589 550.383641 147.536733 553.18035 147.536733 
z
" clip-path="url(#p2b678fe623)" style="fill: #002d9c; stroke: #002d9c; stroke-width: 2; stroke-linejoin: miter"/>
   </g>
   <g id="patch_23">
    <path d="M 599.534349 48.802714 
C 600.732939 48.802714 601.882598 48.32651 602.730129 47.478979 
C 603.57766 46.631448 604.053864 45.481789 604.053864 44.2832 
C 604.053864 43.08461 603.57766 41.934951 602.730129 41.08742 
C 601.882598 40.239889 600.732939 39.763685 599.534349 39.763685 
C 598.33576 39.763685 597.1861 40.239889 596.33857 41.08742 
C 595.491039 41.934951 595.014834 43.08461 595.014834 44.2832 
C 595.014834 45.481789 595.491039 46.631448 596.33857 47.478979 
C 597.1861 48.32651 598.33576 48.802714 599.534349 48.802714 
z
" clip-path="url(#p2b678fe623)" style="fill: #002d9c; stroke: #002d9c; stroke-width: 1.5; stroke-linejoin: miter"/>
   </g>
   <g id="patch_24">
    <path d="M 599.534349 101.182734 
C 602.331058 101.182734 605.013597 100.07159 606.991169 98.094018 
C 608.96874 96.116447 610.079884 93.433907 610.079884 90.637199 
C 610.079884 87.84049 608.96874 85.157951 606.991169 83.18038 
C 605.013597 81.202808 602.331058 80.091664 599.534349 80.091664 
C 596.737641 80.091664 594.055102 81.202808 592.07753 83.18038 
C 590.099959 85.157951 588.988814 87.84049 588.988814 90.637199 
C 588.988814 93.433907 590.099959 96.116447 592.07753 98.094018 
C 594.055102 100.07159 596.737641 101.182734 599.534349 101.182734 
z
" clip-path="url(#p2b678fe623)" style="fill: #002d9c; stroke: #002d9c; stroke-width: 2; stroke-linejoin: miter"/>
   </g>
   <g id="patch_25">
    <path d="M 582.1516 152.056248 
L 616.917099 152.056248 
L 616.917099 121.926148 
L 582.1516 121.926148 
z
" clip-path="url(#p2b678fe623)" style="fill: #9f1853; stroke: #9f1853; stroke-width: 1.5; stroke-linejoin: miter"/>
   </g>
   <g id="patch_26">
    <path d="M 628.505599 59.348249 
L 663.271099 59.348249 
L 663.271099 29.21815 
L 628.505599 29.21815 
z
" clip-path="url(#p2b678fe623)" style="fill: #9f1853; stroke: #9f1853; stroke-width: 1.5; stroke-linejoin: miter"/>
   </g>
   <g id="patch_27">
    <path d="M 624.885352 105.702249 
L 666.891346 105.702249 
L 666.891346 75.572149 
L 624.885352 75.572149 
z
" clip-path="url(#p2b678fe623)" style="fill: #9f1853; stroke: #9f1853; stroke-width: 1.5; stroke-linejoin: miter"/>
   </g>
   <g id="patch_28">
    <path d="M 628.843983 152.056248 
L 662.932714 152.056248 
L 662.932714 121.926148 
L 628.843983 121.926148 
z
" clip-path="url(#p2b678fe623)" style="fill: #9f1853; stroke: #9f1853; stroke-width: 1.5; stroke-linejoin: miter"/>
   </g>
   <g id="patch_29">
    <path d="M 692.242348 48.802714 
C 693.440937 48.802714 694.590597 48.32651 695.438128 47.478979 
C 696.285658 46.631448 696.761863 45.481789 696.761863 44.2832 
C 696.761863 43.08461 696.285658 41.934951 695.438128 41.08742 
C 694.590597 40.239889 693.440937 39.763685 692.242348 39.763685 
C 691.043759 39.763685 689.894099 40.239889 689.046568 41.08742 
C 688.199038 41.934951 687.722833 43.08461 687.722833 44.2832 
C 687.722833 45.481789 688.199038 46.631448 689.046568 47.478979 
C 689.894099 48.32651 691.043759 48.802714 692.242348 48.802714 
z
" clip-path="url(#p2b678fe623)" style="fill: #002d9c; stroke: #002d9c; stroke-width: 1.5; stroke-linejoin: miter"/>
   </g>
   <g id="patch_30">
    <path d="M 692.242348 101.182734 
C 695.039057 101.182734 697.721596 100.07159 699.699167 98.094018 
C 701.676739 96.116447 702.787883 93.433907 702.787883 90.637199 
C 702.787883 87.84049 701.676739 85.157951 699.699167 83.18038 
C 697.721596 81.202808 695.039057 80.091664 692.242348 80.091664 
C 689.44564 80.091664 686.7631 81.202808 684.785529 83.18038 
C 682.807957 85.157951 681.696813 87.84049 681.696813 90.637199 
C 681.696813 93.433907 682.807957 96.116447 684.785529 98.094018 
C 686.7631 100.07159 689.44564 101.182734 692.242348 101.182734 
z
" clip-path="url(#p2b678fe623)" style="fill: #002d9c; stroke: #002d9c; stroke-width: 2; stroke-linejoin: miter"/>
   </g>
   <g id="patch_31">
    <path d="M 675.197983 152.056248 
L 709.286714 152.056248 
L 709.286714 121.926148 
L 675.197983 121.926148 
z
" clip-path="url(#p2b678fe623)" style="fill: #9f1853; stroke: #9f1853; stroke-width: 1.5; stroke-linejoin: miter"/>
   </g>
   <g id="patch_32">
    <path d="M 721.551982 59.348249 
L 755.640713 59.348249 
L 755.640713 29.21815 
L 721.551982 29.21815 
z
" clip-path="url(#p2b678fe623)" style="fill: #9f1853; stroke: #9f1853; stroke-width: 1.5; stroke-linejoin: miter"/>
   </g>
   <g id="patch_33">
    <path d="M 721.551982 105.702249 
L 755.640713 105.702249 
L 755.640713 75.572149 
L 721.551982 75.572149 
z
" clip-path="url(#p2b678fe623)" style="fill: #9f1853; stroke: #9f1853; stroke-width: 1.5; stroke-linejoin: miter"/>
   </g>
   <g id="patch_34">
    <path d="M 769.885297 59.348249 
L 800.015397 59.348249 
L 800.015397 29.21815 
L 769.885297 29.21815 
z
" clip-path="url(#p2b678fe623)" style="fill: #9f1853; stroke: #9f1853; stroke-width: 1.5; stroke-linejoin: miter"/>
   </g>
   <g id="patch_35">
    <path d="M 769.885297 105.702249 
L 800.015397 105.702249 
L 800.015397 75.572149 
L 769.885297 75.572149 
z
" clip-path="url(#p2b678fe623)" style="fill: #9f1853; stroke: #9f1853; stroke-width: 1.5; stroke-linejoin: miter"/>
   </g>
   <g id="patch_36">
    <path d="M 814.259981 105.702249 
L 848.348712 105.702249 
L 848.348712 75.572149 
L 814.259981 75.572149 
z
" clip-path="url(#p2b678fe623)" style="fill: #9f1853; stroke: #9f1853; stroke-width: 1.5; stroke-linejoin: miter"/>
   </g>
   <g id="patch_37">
    <path d="M 877.658346 48.802714 
C 878.856935 48.802714 880.006595 48.32651 880.854125 47.478979 
C 881.701656 46.631448 882.177861 45.481789 882.177861 44.2832 
C 882.177861 43.08461 881.701656 41.934951 880.854125 41.08742 
C 880.006595 40.239889 878.856935 39.763685 877.658346 39.763685 
C 876.459756 39.763685 875.310097 40.239889 874.462566 41.08742 
C 873.615035 41.934951 873.138831 43.08461 873.138831 44.2832 
C 873.138831 45.481789 873.615035 46.631448 874.462566 47.478979 
C 875.310097 48.32651 876.459756 48.802714 877.658346 48.802714 
z
" clip-path="url(#p2b678fe623)" style="fill: #002d9c; stroke: #002d9c; stroke-width: 1.5; stroke-linejoin: miter"/>
   </g>
   <g id="patch_38">
    <path d="M 877.658346 101.182734 
C 880.455054 101.182734 883.137593 100.07159 885.115165 98.094018 
C 887.092736 96.116447 888.203881 93.433907 888.203881 90.637199 
C 888.203881 87.84049 887.092736 85.157951 885.115165 83.18038 
C 883.137593 81.202808 880.455054 80.091664 877.658346 80.091664 
C 874.861637 80.091664 872.179098 81.202808 870.201526 83.18038 
C 868.223955 85.157951 867.112811 87.84049 867.112811 90.637199 
C 867.112811 93.433907 868.223955 96.116447 870.201526 98.094018 
C 872.179098 100.07159 874.861637 101.182734 877.658346 101.182734 
z
" clip-path="url(#p2b678fe623)" style="fill: #002d9c; stroke: #002d9c; stroke-width: 2; stroke-linejoin: miter"/>
   </g>
   <g id="patch_39">
    <path d="M 908.947295 59.348249 
L 939.077395 59.348249 
L 939.077395 29.21815 
L 908.947295 29.21815 
z
" clip-path="url(#p2b678fe623)" style="fill: #9f1853; stroke: #9f1853; stroke-width: 1.5; stroke-linejoin: miter"/>
   </g>
   <g id="patch_40">
    <path d="M 906.967979 105.702249 
L 941.056711 105.702249 
L 941.056711 75.572149 
L 906.967979 75.572149 
z
" clip-path="url(#p2b678fe623)" style="fill: #9f1853; stroke: #9f1853; stroke-width: 1.5; stroke-linejoin: miter"/>
   </g>
   <g id="patch_41">
    <path d="M 953.321979 59.348249 
L 987.41071 59.348249 
L 987.41071 29.21815 
L 953.321979 29.21815 
z
" clip-path="url(#p2b678fe623)" style="fill: #9f1853; stroke: #9f1853; stroke-width: 1.5; stroke-linejoin: miter"/>
   </g>
   <g id="patch_42">
    <path d="M 955.301295 105.702249 
L 985.431394 105.702249 
L 985.431394 75.572149 
L 955.301295 75.572149 
z
" clip-path="url(#p2b678fe623)" style="fill: #9f1853; stroke: #9f1853; stroke-width: 1.5; stroke-linejoin: miter"/>
   </g>
   <g id="patch_43">
    <path d="M 999.675978 105.702249 
L 1033.764709 105.702249 
L 1033.764709 75.572149 
L 999.675978 75.572149 
z
" clip-path="url(#p2b678fe623)" style="fill: #9f1853; stroke: #9f1853; stroke-width: 1.5; stroke-linejoin: miter"/>
   </g>
   <g id="patch_44">
    <path d="M 1048.009293 59.348249 
L 1078.139393 59.348249 
L 1078.139393 29.21815 
L 1048.009293 29.21815 
z
" clip-path="url(#p2b678fe623)" style="fill: #a8a8a8; stroke: #a8a8a8; stroke-width: 1.5; stroke-linejoin: miter"/>
   </g>
   <g id="patch_45">
    <path d="M 1073.619878 48.802714 
C 1073.619878 46.006937 1072.508075 43.322808 1070.531162 41.345895 
C 1068.554249 39.368982 1065.87012 38.25718 1063.074343 38.25718 
C 1060.278566 38.25718 1057.594437 39.368982 1055.617524 41.345895 
C 1053.640611 43.322808 1052.528808 46.006937 1052.528808 48.802714 
" clip-path="url(#p2b678fe623)" style="fill: none; stroke: #000000; stroke-width: 2; stroke-linejoin: miter"/>
   </g>
   <g id="line2d_18">
    <path d="M 1063.074343 48.802714 
L 1073.619878 38.25718 
" clip-path="url(#p2b678fe623)" style="fill: none; stroke: #000000; stroke-width: 2; stroke-linecap: square"/>
   </g>
   <g id="patch_46">
    <path d="M 1094.363293 105.702249 
L 1124.493392 105.702249 
L 1124.493392 75.572149 
L 1094.363293 75.572149 
z
" clip-path="url(#p2b678fe623)" style="fill: #a8a8a8; stroke: #a8a8a8; stroke-width: 1.5; stroke-linejoin: miter"/>
   </g>
   <g id="patch_47">
    <path d="M 1119.973877 95.156714 
C 1119.973877 92.360937 1118.862075 89.676808 1116.885162 87.699895 
C 1114.908249 85.722982 1112.22412 84.611179 1109.428343 84.611179 
C 1106.632565 84.611179 1103.948436 85.722982 1101.971523 87.699895 
C 1099.99461 89.676808 1098.882808 92.360937 1098.882808 95.156714 
" clip-path="url(#p2b678fe623)" style="fill: none; stroke: #000000; stroke-width: 2; stroke-linejoin: miter"/>
   </g>
   <g id="line2d_19">
    <path d="M 1109.428343 95.156714 
L 1119.973877 84.611179 
" clip-path="url(#p2b678fe623)" style="fill: none; stroke: #000000; stroke-width: 2; stroke-linecap: square"/>
   </g>
   <g id="line2d_20">
    <path d="M 275.056354 143.017218 
L 275.056354 130.965178 
" clip-path="url(#p2b678fe623)" style="fill: none; stroke: #ffffff; stroke-width: 2; stroke-linecap: square"/>
   </g>
   <g id="line2d_21">
    <path d="M 269.030334 136.991198 
L 281.082374 136.991198 
" clip-path="url(#p2b678fe623)" style="fill: none; stroke: #ffffff; stroke-width: 2; stroke-linecap: square"/>
   </g>
   <g id="line2d_22">
    <path d="M 367.764352 143.017218 
L 367.764352 130.965178 
" clip-path="url(#p2b678fe623)" style="fill: none; stroke: #ffffff; stroke-width: 2; stroke-linecap: square"/>
   </g>
   <g id="line2d_23">
    <path d="M 361.738333 136.991198 
L 373.790372 136.991198 
" clip-path="url(#p2b678fe623)" style="fill: none; stroke: #ffffff; stroke-width: 2; stroke-linecap: square"/>
   </g>
   <g id="line2d_24">
    <path d="M 460.472351 143.017218 
L 460.472351 130.965178 
" clip-path="url(#p2b678fe623)" style="fill: none; stroke: #ffffff; stroke-width: 2; stroke-linecap: square"/>
   </g>
   <g id="line2d_25">
    <path d="M 454.446331 136.991198 
L 466.498371 136.991198 
" clip-path="url(#p2b678fe623)" style="fill: none; stroke: #ffffff; stroke-width: 2; stroke-linecap: square"/>
   </g>
   <g id="line2d_26">
    <path d="M 553.18035 143.017218 
L 553.18035 130.965178 
" clip-path="url(#p2b678fe623)" style="fill: none; stroke: #ffffff; stroke-width: 2; stroke-linecap: square"/>
   </g>
   <g id="line2d_27">
    <path d="M 547.15433 136.991198 
L 559.20637 136.991198 
" clip-path="url(#p2b678fe623)" style="fill: none; stroke: #ffffff; stroke-width: 2; stroke-linecap: square"/>
   </g>
   <g id="line2d_28">
    <path d="M 599.534349 96.663219 
L 599.534349 84.611179 
" clip-path="url(#p2b678fe623)" style="fill: none; stroke: #ffffff; stroke-width: 2; stroke-linecap: square"/>
   </g>
   <g id="line2d_29">
    <path d="M 593.508329 90.637199 
L 605.560369 90.637199 
" clip-path="url(#p2b678fe623)" style="fill: none; stroke: #ffffff; stroke-width: 2; stroke-linecap: square"/>
   </g>
   <g id="line2d_30">
    <path d="M 692.242348 96.663219 
L 692.242348 84.611179 
" clip-path="url(#p2b678fe623)" style="fill: none; stroke: #ffffff; stroke-width: 2; stroke-linecap: square"/>
   </g>
   <g id="line2d_31">
    <path d="M 686.216328 90.637199 
L 698.268368 90.637199 
" clip-path="url(#p2b678fe623)" style="fill: none; stroke: #ffffff; stroke-width: 2; stroke-linecap: square"/>
   </g>
   <g id="line2d_32">
    <path d="M 877.658346 96.663219 
L 877.658346 84.611179 
" clip-path="url(#p2b678fe623)" style="fill: none; stroke: #ffffff; stroke-width: 2; stroke-linecap: square"/>
   </g>
   <g id="line2d_33">
    <path d="M 871.632326 90.637199 
L 883.684366 90.637199 
" clip-path="url(#p2b678fe623)" style="fill: none; stroke: #ffffff; stroke-width: 2; stroke-linecap: square"/>
   </g>
   <g id="text_1">
    <g clip-path="url(#p2b678fe623)">
     <!-- ${q}_{0}$ -->
     <g transform="translate(37.300897 48.734176) scale(0.1625 -0.1625)">
      <defs>
       <path id="DejaVuSans-Oblique-71" d="M 2669 525 
Q 2438 222 2123 65 
Q 1809 -91 1428 -91 
Q 897 -91 595 267 
Q 294 625 294 1253 
Q 294 1759 480 2231 
Q 666 2703 1013 3078 
Q 1238 3322 1530 3453 
Q 1822 3584 2144 3584 
Q 2531 3584 2781 3431 
Q 3031 3278 3144 2969 
L 3244 3494 
L 3822 3494 
L 2888 -1319 
L 2309 -1319 
L 2669 525 
z
M 891 1338 
Q 891 875 1084 633 
Q 1278 391 1644 391 
Q 2188 391 2572 911 
Q 2956 1431 2956 2175 
Q 2956 2625 2757 2864 
Q 2559 3103 2188 3103 
Q 1916 3103 1684 2976 
Q 1453 2850 1281 2606 
Q 1100 2350 995 2006 
Q 891 1663 891 1338 
z
" transform="scale(0.015625)"/>
       <path id="DejaVuSans-30" d="M 2034 4250 
Q 1547 4250 1301 3770 
Q 1056 3291 1056 2328 
Q 1056 1369 1301 889 
Q 1547 409 2034 409 
Q 2525 409 2770 889 
Q 3016 1369 3016 2328 
Q 3016 3291 2770 3770 
Q 2525 4250 2034 4250 
z
M 2034 4750 
Q 2819 4750 3233 4129 
Q 3647 3509 3647 2328 
Q 3647 1150 3233 529 
Q 2819 -91 2034 -91 
Q 1250 -91 836 529 
Q 422 1150 422 2328 
Q 422 3509 836 4129 
Q 1250 4750 2034 4750 
z
" transform="scale(0.015625)"/>
      </defs>
      <use xlink:href="#DejaVuSans-Oblique-71"/>
      <use xlink:href="#DejaVuSans-30" transform="translate(63.476562 -16.40625) scale(0.7)"/>
     </g>
    </g>
   </g>
   <g id="text_2">
    <g clip-path="url(#p2b678fe623)">
     <!-- ${q}_{1}$ -->
     <g transform="translate(37.300897 95.088175) scale(0.1625 -0.1625)">
      <defs>
       <path id="DejaVuSans-31" d="M 794 531 
L 1825 531 
L 1825 4091 
L 703 3866 
L 703 4441 
L 1819 4666 
L 2450 4666 
L 2450 531 
L 3481 531 
L 3481 0 
L 794 0 
L 794 531 
z
" transform="scale(0.015625)"/>
      </defs>
      <use xlink:href="#DejaVuSans-Oblique-71"/>
      <use xlink:href="#DejaVuSans-31" transform="translate(63.476562 -16.40625) scale(0.7)"/>
     </g>
    </g>
   </g>
   <g id="text_3">
    <g clip-path="url(#p2b678fe623)">
     <!-- ${q}_{2}$ -->
     <g transform="translate(37.300897 141.442175) scale(0.1625 -0.1625)">
      <defs>
       <path id="DejaVuSans-32" d="M 1228 531 
L 3431 531 
L 3431 0 
L 469 0 
L 469 531 
Q 828 903 1448 1529 
Q 2069 2156 2228 2338 
Q 2531 2678 2651 2914 
Q 2772 3150 2772 3378 
Q 2772 3750 2511 3984 
Q 2250 4219 1831 4219 
Q 1534 4219 1204 4116 
Q 875 4013 500 3803 
L 500 4441 
Q 881 4594 1212 4672 
Q 1544 4750 1819 4750 
Q 2544 4750 2975 4387 
Q 3406 4025 3406 3419 
Q 3406 3131 3298 2873 
Q 3191 2616 2906 2266 
Q 2828 2175 2409 1742 
Q 1991 1309 1228 531 
z
" transform="scale(0.015625)"/>
      </defs>
      <use xlink:href="#DejaVuSans-Oblique-71"/>
      <use xlink:href="#DejaVuSans-32" transform="translate(63.476562 -16.40625) scale(0.7)"/>
     </g>
    </g>
   </g>
   <g id="text_4">
    <g clip-path="url(#p2b678fe623)">
     <!-- 2 -->
     <g transform="translate(69.244596 176.546923) scale(0.104 -0.104)">
      <use xlink:href="#DejaVuSans-32"/>
     </g>
    </g>
   </g>
   <g id="text_5">
    <g clip-path="url(#p2b678fe623)">
     <!-- c -->
     <g transform="translate(46.403436 187.829182) scale(0.1625 -0.1625)">
      <defs>
       <path id="DejaVuSans-63" d="M 3122 3366 
L 3122 2828 
Q 2878 2963 2633 3030 
Q 2388 3097 2138 3097 
Q 1578 3097 1268 2742 
Q 959 2388 959 1747 
Q 959 1106 1268 751 
Q 1578 397 2138 397 
Q 2388 397 2633 464 
Q 2878 531 3122 666 
L 3122 134 
Q 2881 22 2623 -34 
Q 2366 -91 2075 -91 
Q 1284 -91 818 406 
Q 353 903 353 1747 
Q 353 2603 823 3093 
Q 1294 3584 2113 3584 
Q 2378 3584 2631 3529 
Q 2884 3475 3122 3366 
z
" transform="scale(0.015625)"/>
      </defs>
      <use xlink:href="#DejaVuSans-63"/>
     </g>
    </g>
   </g>
   <g id="text_6">
    <g clip-path="url(#p2b678fe623)">
     <!-- $\pi$/2, 0, $\pi$ -->
     <g style="fill: #ffffff" transform="translate(73.440356 55.529729) scale(0.08 -0.08)">
      <defs>
       <path id="DejaVuSans-Oblique-3c0" d="M 584 3500 
L 3938 3500 
L 3825 2925 
L 3384 2925 
L 2966 775 
Q 2922 550 2981 450 
Q 3038 353 3209 353 
Q 3256 353 3325 363 
Q 3397 369 3419 372 
L 3338 -44 
Q 3222 -84 3103 -103 
Q 2981 -122 2866 -122 
Q 2491 -122 2388 81 
Q 2284 288 2391 838 
L 2797 2925 
L 1506 2925 
L 938 0 
L 350 0 
L 919 2925 
L 472 2925 
L 584 3500 
z
" transform="scale(0.015625)"/>
       <path id="DejaVuSans-2f" d="M 1625 4666 
L 2156 4666 
L 531 -594 
L 0 -594 
L 1625 4666 
z
" transform="scale(0.015625)"/>
       <path id="DejaVuSans-2c" d="M 750 794 
L 1409 794 
L 1409 256 
L 897 -744 
L 494 -744 
L 750 256 
L 750 794 
z
" transform="scale(0.015625)"/>
       <path id="DejaVuSans-20" transform="scale(0.015625)"/>
      </defs>
      <use xlink:href="#DejaVuSans-Oblique-3c0" transform="translate(0 0.78125)"/>
      <use xlink:href="#DejaVuSans-2f" transform="translate(60.205078 0.78125)"/>
      <use xlink:href="#DejaVuSans-32" transform="translate(90.271484 0.78125)"/>
      <use xlink:href="#DejaVuSans-2c" transform="translate(153.894531 0.78125)"/>
      <use xlink:href="#DejaVuSans-20" transform="translate(185.681641 0.78125)"/>
      <use xlink:href="#DejaVuSans-30" transform="translate(217.46875 0.78125)"/>
      <use xlink:href="#DejaVuSans-2c" transform="translate(281.091797 0.78125)"/>
      <use xlink:href="#DejaVuSans-20" transform="translate(312.878906 0.78125)"/>
      <use xlink:href="#DejaVuSans-Oblique-3c0" transform="translate(344.666016 0.78125)"/>
     </g>
    </g>
   </g>
   <g id="text_7">
    <g clip-path="url(#p2b678fe623)">
     <!-- U -->
     <g style="fill: #ffffff" transform="translate(84.883169 43.350872) scale(0.13 -0.13)">
      <defs>
       <path id="DejaVuSans-55" d="M 556 4666 
L 1191 4666 
L 1191 1831 
Q 1191 1081 1462 751 
Q 1734 422 2344 422 
Q 2950 422 3222 751 
Q 3494 1081 3494 1831 
L 3494 4666 
L 4128 4666 
L 4128 1753 
Q 4128 841 3676 375 
Q 3225 -91 2344 -91 
Q 1459 -91 1007 375 
Q 556 841 556 1753 
L 556 4666 
z
" transform="scale(0.015625)"/>
      </defs>
      <use xlink:href="#DejaVuSans-55"/>
     </g>
    </g>
   </g>
   <g id="text_8">
    <g clip-path="url(#p2b678fe623)">
     <!-- $\pi$/2, 0, $\pi$ -->
     <g style="fill: #ffffff" transform="translate(73.440356 101.883729) scale(0.08 -0.08)">
      <use xlink:href="#DejaVuSans-Oblique-3c0" transform="translate(0 0.78125)"/>
      <use xlink:href="#DejaVuSans-2f" transform="translate(60.205078 0.78125)"/>
      <use xlink:href="#DejaVuSans-32" transform="translate(90.271484 0.78125)"/>
      <use xlink:href="#DejaVuSans-2c" transform="translate(153.894531 0.78125)"/>
      <use xlink:href="#DejaVuSans-20" transform="translate(185.681641 0.78125)"/>
      <use xlink:href="#DejaVuSans-30" transform="translate(217.46875 0.78125)"/>
      <use xlink:href="#DejaVuSans-2c" transform="translate(281.091797 0.78125)"/>
      <use xlink:href="#DejaVuSans-20" transform="translate(312.878906 0.78125)"/>
      <use xlink:href="#DejaVuSans-Oblique-3c0" transform="translate(344.666016 0.78125)"/>
     </g>
    </g>
   </g>
   <g id="text_9">
    <g clip-path="url(#p2b678fe623)">
     <!-- U -->
     <g style="fill: #ffffff" transform="translate(84.883169 89.704871) scale(0.13 -0.13)">
      <use xlink:href="#DejaVuSans-55"/>
     </g>
    </g>
   </g>
   <g id="text_10">
    <g clip-path="url(#p2b678fe623)">
     <!-- $\pi$, 0, $\pi$ -->
     <g style="fill: #ffffff" transform="translate(77.160356 148.237728) scale(0.08 -0.08)">
      <use xlink:href="#DejaVuSans-Oblique-3c0" transform="translate(0 0.78125)"/>
      <use xlink:href="#DejaVuSans-2c" transform="translate(60.205078 0.78125)"/>
      <use xlink:href="#DejaVuSans-20" transform="translate(91.992188 0.78125)"/>
      <use xlink:href="#DejaVuSans-30" transform="translate(123.779297 0.78125)"/>
      <use xlink:href="#DejaVuSans-2c" transform="translate(187.402344 0.78125)"/>
      <use xlink:href="#DejaVuSans-20" transform="translate(219.189453 0.78125)"/>
      <use xlink:href="#DejaVuSans-Oblique-3c0" transform="translate(250.976562 0.78125)"/>
     </g>
    </g>
   </g>
   <g id="text_11">
    <g clip-path="url(#p2b678fe623)">
     <!-- U -->
     <g style="fill: #ffffff" transform="translate(84.883169 136.058871) scale(0.13 -0.13)">
      <use xlink:href="#DejaVuSans-55"/>
     </g>
    </g>
   </g>
   <g id="text_12">
    <g clip-path="url(#p2b678fe623)">
     <!-- $\pi$/2, 0, $\pi$ -->
     <g style="fill: #ffffff" transform="translate(119.794356 148.237728) scale(0.08 -0.08)">
      <use xlink:href="#DejaVuSans-Oblique-3c0" transform="translate(0 0.78125)"/>
      <use xlink:href="#DejaVuSans-2f" transform="translate(60.205078 0.78125)"/>
      <use xlink:href="#DejaVuSans-32" transform="translate(90.271484 0.78125)"/>
      <use xlink:href="#DejaVuSans-2c" transform="translate(153.894531 0.78125)"/>
      <use xlink:href="#DejaVuSans-20" transform="translate(185.681641 0.78125)"/>
      <use xlink:href="#DejaVuSans-30" transform="translate(217.46875 0.78125)"/>
      <use xlink:href="#DejaVuSans-2c" transform="translate(281.091797 0.78125)"/>
      <use xlink:href="#DejaVuSans-20" transform="translate(312.878906 0.78125)"/>
      <use xlink:href="#DejaVuSans-Oblique-3c0" transform="translate(344.666016 0.78125)"/>
     </g>
    </g>
   </g>
   <g id="text_13">
    <g clip-path="url(#p2b678fe623)">
     <!-- U -->
     <g style="fill: #ffffff" transform="translate(131.237168 136.058871) scale(0.13 -0.13)">
      <use xlink:href="#DejaVuSans-55"/>
     </g>
    </g>
   </g>
   <g id="text_14">
    <g clip-path="url(#p2b678fe623)">
     <!-- $\pi$/2, 0, $\pi$ -->
     <g style="fill: #ffffff" transform="translate(166.148355 148.237728) scale(0.08 -0.08)">
      <use xlink:href="#DejaVuSans-Oblique-3c0" transform="translate(0 0.78125)"/>
      <use xlink:href="#DejaVuSans-2f" transform="translate(60.205078 0.78125)"/>
      <use xlink:href="#DejaVuSans-32" transform="translate(90.271484 0.78125)"/>
      <use xlink:href="#DejaVuSans-2c" transform="translate(153.894531 0.78125)"/>
      <use xlink:href="#DejaVuSans-20" transform="translate(185.681641 0.78125)"/>
      <use xlink:href="#DejaVuSans-30" transform="translate(217.46875 0.78125)"/>
      <use xlink:href="#DejaVuSans-2c" transform="translate(281.091797 0.78125)"/>
      <use xlink:href="#DejaVuSans-20" transform="translate(312.878906 0.78125)"/>
      <use xlink:href="#DejaVuSans-Oblique-3c0" transform="translate(344.666016 0.78125)"/>
     </g>
    </g>
   </g>
   <g id="text_15">
    <g clip-path="url(#p2b678fe623)">
     <!-- U -->
     <g style="fill: #ffffff" transform="translate(177.591167 136.058871) scale(0.13 -0.13)">
      <use xlink:href="#DejaVuSans-55"/>
     </g>
    </g>
   </g>
   <g id="text_16">
    <g clip-path="url(#p2b678fe623)">
     <!-- $\pi$/2, 0, $\pi$ -->
     <g style="fill: #ffffff" transform="translate(212.502354 148.237728) scale(0.08 -0.08)">
      <use xlink:href="#DejaVuSans-Oblique-3c0" transform="translate(0 0.78125)"/>
      <use xlink:href="#DejaVuSans-2f" transform="translate(60.205078 0.78125)"/>
      <use xlink:href="#DejaVuSans-32" transform="translate(90.271484 0.78125)"/>
      <use xlink:href="#DejaVuSans-2c" transform="translate(153.894531 0.78125)"/>
      <use xlink:href="#DejaVuSans-20" transform="translate(185.681641 0.78125)"/>
      <use xlink:href="#DejaVuSans-30" transform="translate(217.46875 0.78125)"/>
      <use xlink:href="#DejaVuSans-2c" transform="translate(281.091797 0.78125)"/>
      <use xlink:href="#DejaVuSans-20" transform="translate(312.878906 0.78125)"/>
      <use xlink:href="#DejaVuSans-Oblique-3c0" transform="translate(344.666016 0.78125)"/>
     </g>
    </g>
   </g>
   <g id="text_17">
    <g clip-path="url(#p2b678fe623)">
     <!-- U -->
     <g style="fill: #ffffff" transform="translate(223.945167 136.058871) scale(0.13 -0.13)">
      <use xlink:href="#DejaVuSans-55"/>
     </g>
    </g>
   </g>
   <g id="text_18">
    <g clip-path="url(#p2b678fe623)">
     <!-- 0, 0, $-$$\pi$/4 -->
     <g style="fill: #ffffff" transform="translate(301.570353 148.237728) scale(0.08 -0.08)">
      <defs>
       <path id="DejaVuSans-2212" d="M 678 2272 
L 4684 2272 
L 4684 1741 
L 678 1741 
L 678 2272 
z
" transform="scale(0.015625)"/>
       <path id="DejaVuSans-34" d="M 2419 4116 
L 825 1625 
L 2419 1625 
L 2419 4116 
z
M 2253 4666 
L 3047 4666 
L 3047 1625 
L 3713 1625 
L 3713 1100 
L 3047 1100 
L 3047 0 
L 2419 0 
L 2419 1100 
L 313 1100 
L 313 1709 
L 2253 4666 
z
" transform="scale(0.015625)"/>
      </defs>
      <use xlink:href="#DejaVuSans-30" transform="translate(0 0.78125)"/>
      <use xlink:href="#DejaVuSans-2c" transform="translate(63.623047 0.78125)"/>
      <use xlink:href="#DejaVuSans-20" transform="translate(95.410156 0.78125)"/>
      <use xlink:href="#DejaVuSans-30" transform="translate(127.197266 0.78125)"/>
      <use xlink:href="#DejaVuSans-2c" transform="translate(190.820312 0.78125)"/>
      <use xlink:href="#DejaVuSans-20" transform="translate(222.607422 0.78125)"/>
      <use xlink:href="#DejaVuSans-2212" transform="translate(254.394531 0.78125)"/>
      <use xlink:href="#DejaVuSans-Oblique-3c0" transform="translate(338.183594 0.78125)"/>
      <use xlink:href="#DejaVuSans-2f" transform="translate(398.388672 0.78125)"/>
      <use xlink:href="#DejaVuSans-34" transform="translate(432.080078 0.78125)"/>
     </g>
    </g>
   </g>
   <g id="text_19">
    <g clip-path="url(#p2b678fe623)">
     <!-- U -->
     <g style="fill: #ffffff" transform="translate(316.653166 136.058871) scale(0.13 -0.13)">
      <use xlink:href="#DejaVuSans-55"/>
     </g>
    </g>
   </g>
   <g id="text_20">
    <g clip-path="url(#p2b678fe623)">
     <!-- 0, 0, $\pi$/4 -->
     <g style="fill: #ffffff" transform="translate(397.638352 148.237728) scale(0.08 -0.08)">
      <use xlink:href="#DejaVuSans-30" transform="translate(0 0.78125)"/>
      <use xlink:href="#DejaVuSans-2c" transform="translate(63.623047 0.78125)"/>
      <use xlink:href="#DejaVuSans-20" transform="translate(95.410156 0.78125)"/>
      <use xlink:href="#DejaVuSans-30" transform="translate(127.197266 0.78125)"/>
      <use xlink:href="#DejaVuSans-2c" transform="translate(190.820312 0.78125)"/>
      <use xlink:href="#DejaVuSans-20" transform="translate(222.607422 0.78125)"/>
      <use xlink:href="#DejaVuSans-Oblique-3c0" transform="translate(254.394531 0.78125)"/>
      <use xlink:href="#DejaVuSans-2f" transform="translate(314.599609 0.78125)"/>
      <use xlink:href="#DejaVuSans-34" transform="translate(348.291016 0.78125)"/>
     </g>
    </g>
   </g>
   <g id="text_21">
    <g clip-path="url(#p2b678fe623)">
     <!-- U -->
     <g style="fill: #ffffff" transform="translate(409.361164 136.058871) scale(0.13 -0.13)">
      <use xlink:href="#DejaVuSans-55"/>
     </g>
    </g>
   </g>
   <g id="text_22">
    <g clip-path="url(#p2b678fe623)">
     <!-- 0, 0, $\pi$/4 -->
     <g style="fill: #ffffff" transform="translate(490.346351 101.883729) scale(0.08 -0.08)">
      <use xlink:href="#DejaVuSans-30" transform="translate(0 0.78125)"/>
      <use xlink:href="#DejaVuSans-2c" transform="translate(63.623047 0.78125)"/>
      <use xlink:href="#DejaVuSans-20" transform="translate(95.410156 0.78125)"/>
      <use xlink:href="#DejaVuSans-30" transform="translate(127.197266 0.78125)"/>
      <use xlink:href="#DejaVuSans-2c" transform="translate(190.820312 0.78125)"/>
      <use xlink:href="#DejaVuSans-20" transform="translate(222.607422 0.78125)"/>
      <use xlink:href="#DejaVuSans-Oblique-3c0" transform="translate(254.394531 0.78125)"/>
      <use xlink:href="#DejaVuSans-2f" transform="translate(314.599609 0.78125)"/>
      <use xlink:href="#DejaVuSans-34" transform="translate(348.291016 0.78125)"/>
     </g>
    </g>
   </g>
   <g id="text_23">
    <g clip-path="url(#p2b678fe623)">
     <!-- U -->
     <g style="fill: #ffffff" transform="translate(502.069163 89.704871) scale(0.13 -0.13)">
      <use xlink:href="#DejaVuSans-55"/>
     </g>
    </g>
   </g>
   <g id="text_24">
    <g clip-path="url(#p2b678fe623)">
     <!-- 0, 0, $-$$\pi$/4 -->
     <g style="fill: #ffffff" transform="translate(486.986351 148.237728) scale(0.08 -0.08)">
      <use xlink:href="#DejaVuSans-30" transform="translate(0 0.78125)"/>
      <use xlink:href="#DejaVuSans-2c" transform="translate(63.623047 0.78125)"/>
      <use xlink:href="#DejaVuSans-20" transform="translate(95.410156 0.78125)"/>
      <use xlink:href="#DejaVuSans-30" transform="translate(127.197266 0.78125)"/>
      <use xlink:href="#DejaVuSans-2c" transform="translate(190.820312 0.78125)"/>
      <use xlink:href="#DejaVuSans-20" transform="translate(222.607422 0.78125)"/>
      <use xlink:href="#DejaVuSans-2212" transform="translate(254.394531 0.78125)"/>
      <use xlink:href="#DejaVuSans-Oblique-3c0" transform="translate(338.183594 0.78125)"/>
      <use xlink:href="#DejaVuSans-2f" transform="translate(398.388672 0.78125)"/>
      <use xlink:href="#DejaVuSans-34" transform="translate(432.080078 0.78125)"/>
     </g>
    </g>
   </g>
   <g id="text_25">
    <g clip-path="url(#p2b678fe623)">
     <!-- U -->
     <g style="fill: #ffffff" transform="translate(502.069163 136.058871) scale(0.13 -0.13)">
      <use xlink:href="#DejaVuSans-55"/>
     </g>
    </g>
   </g>
   <g id="text_26">
    <g clip-path="url(#p2b678fe623)">
     <!-- 0, 0, $\pi$/4 -->
     <g style="fill: #ffffff" transform="translate(583.054349 148.237728) scale(0.08 -0.08)">
      <use xlink:href="#DejaVuSans-30" transform="translate(0 0.78125)"/>
      <use xlink:href="#DejaVuSans-2c" transform="translate(63.623047 0.78125)"/>
      <use xlink:href="#DejaVuSans-20" transform="translate(95.410156 0.78125)"/>
      <use xlink:href="#DejaVuSans-30" transform="translate(127.197266 0.78125)"/>
      <use xlink:href="#DejaVuSans-2c" transform="translate(190.820312 0.78125)"/>
      <use xlink:href="#DejaVuSans-20" transform="translate(222.607422 0.78125)"/>
      <use xlink:href="#DejaVuSans-Oblique-3c0" transform="translate(254.394531 0.78125)"/>
      <use xlink:href="#DejaVuSans-2f" transform="translate(314.599609 0.78125)"/>
      <use xlink:href="#DejaVuSans-34" transform="translate(348.291016 0.78125)"/>
     </g>
    </g>
   </g>
   <g id="text_27">
    <g clip-path="url(#p2b678fe623)">
     <!-- U -->
     <g style="fill: #ffffff" transform="translate(594.777162 136.058871) scale(0.13 -0.13)">
      <use xlink:href="#DejaVuSans-55"/>
     </g>
    </g>
   </g>
   <g id="text_28">
    <g clip-path="url(#p2b678fe623)">
     <!-- 0, 0, $\pi$/4 -->
     <g style="fill: #ffffff" transform="translate(629.408349 55.529729) scale(0.08 -0.08)">
      <use xlink:href="#DejaVuSans-30" transform="translate(0 0.78125)"/>
      <use xlink:href="#DejaVuSans-2c" transform="translate(63.623047 0.78125)"/>
      <use xlink:href="#DejaVuSans-20" transform="translate(95.410156 0.78125)"/>
      <use xlink:href="#DejaVuSans-30" transform="translate(127.197266 0.78125)"/>
      <use xlink:href="#DejaVuSans-2c" transform="translate(190.820312 0.78125)"/>
      <use xlink:href="#DejaVuSans-20" transform="translate(222.607422 0.78125)"/>
      <use xlink:href="#DejaVuSans-Oblique-3c0" transform="translate(254.394531 0.78125)"/>
      <use xlink:href="#DejaVuSans-2f" transform="translate(314.599609 0.78125)"/>
      <use xlink:href="#DejaVuSans-34" transform="translate(348.291016 0.78125)"/>
     </g>
    </g>
   </g>
   <g id="text_29">
    <g clip-path="url(#p2b678fe623)">
     <!-- U -->
     <g style="fill: #ffffff" transform="translate(641.131161 43.350872) scale(0.13 -0.13)">
      <use xlink:href="#DejaVuSans-55"/>
     </g>
    </g>
   </g>
   <g id="text_30">
    <g clip-path="url(#p2b678fe623)">
     <!-- 0, 0, $-$$\pi$/4 -->
     <g style="fill: #ffffff" transform="translate(626.048349 101.883729) scale(0.08 -0.08)">
      <use xlink:href="#DejaVuSans-30" transform="translate(0 0.78125)"/>
      <use xlink:href="#DejaVuSans-2c" transform="translate(63.623047 0.78125)"/>
      <use xlink:href="#DejaVuSans-20" transform="translate(95.410156 0.78125)"/>
      <use xlink:href="#DejaVuSans-30" transform="translate(127.197266 0.78125)"/>
      <use xlink:href="#DejaVuSans-2c" transform="translate(190.820312 0.78125)"/>
      <use xlink:href="#DejaVuSans-20" transform="translate(222.607422 0.78125)"/>
      <use xlink:href="#DejaVuSans-2212" transform="translate(254.394531 0.78125)"/>
      <use xlink:href="#DejaVuSans-Oblique-3c0" transform="translate(338.183594 0.78125)"/>
      <use xlink:href="#DejaVuSans-2f" transform="translate(398.388672 0.78125)"/>
      <use xlink:href="#DejaVuSans-34" transform="translate(432.080078 0.78125)"/>
     </g>
    </g>
   </g>
   <g id="text_31">
    <g clip-path="url(#p2b678fe623)">
     <!-- U -->
     <g style="fill: #ffffff" transform="translate(641.131161 89.704871) scale(0.13 -0.13)">
      <use xlink:href="#DejaVuSans-55"/>
     </g>
    </g>
   </g>
   <g id="text_32">
    <g clip-path="url(#p2b678fe623)">
     <!-- $\pi$/2, 0, $\pi$ -->
     <g style="fill: #ffffff" transform="translate(629.688349 148.237728) scale(0.08 -0.08)">
      <use xlink:href="#DejaVuSans-Oblique-3c0" transform="translate(0 0.78125)"/>
      <use xlink:href="#DejaVuSans-2f" transform="translate(60.205078 0.78125)"/>
      <use xlink:href="#DejaVuSans-32" transform="translate(90.271484 0.78125)"/>
      <use xlink:href="#DejaVuSans-2c" transform="translate(153.894531 0.78125)"/>
      <use xlink:href="#DejaVuSans-20" transform="translate(185.681641 0.78125)"/>
      <use xlink:href="#DejaVuSans-30" transform="translate(217.46875 0.78125)"/>
      <use xlink:href="#DejaVuSans-2c" transform="translate(281.091797 0.78125)"/>
      <use xlink:href="#DejaVuSans-20" transform="translate(312.878906 0.78125)"/>
      <use xlink:href="#DejaVuSans-Oblique-3c0" transform="translate(344.666016 0.78125)"/>
     </g>
    </g>
   </g>
   <g id="text_33">
    <g clip-path="url(#p2b678fe623)">
     <!-- U -->
     <g style="fill: #ffffff" transform="translate(641.131161 136.058871) scale(0.13 -0.13)">
      <use xlink:href="#DejaVuSans-55"/>
     </g>
    </g>
   </g>
   <g id="text_34">
    <g clip-path="url(#p2b678fe623)">
     <!-- $\pi$/2, 0, $\pi$ -->
     <g style="fill: #ffffff" transform="translate(676.042348 148.237728) scale(0.08 -0.08)">
      <use xlink:href="#DejaVuSans-Oblique-3c0" transform="translate(0 0.78125)"/>
      <use xlink:href="#DejaVuSans-2f" transform="translate(60.205078 0.78125)"/>
      <use xlink:href="#DejaVuSans-32" transform="translate(90.271484 0.78125)"/>
      <use xlink:href="#DejaVuSans-2c" transform="translate(153.894531 0.78125)"/>
      <use xlink:href="#DejaVuSans-20" transform="translate(185.681641 0.78125)"/>
      <use xlink:href="#DejaVuSans-30" transform="translate(217.46875 0.78125)"/>
      <use xlink:href="#DejaVuSans-2c" transform="translate(281.091797 0.78125)"/>
      <use xlink:href="#DejaVuSans-20" transform="translate(312.878906 0.78125)"/>
      <use xlink:href="#DejaVuSans-Oblique-3c0" transform="translate(344.666016 0.78125)"/>
     </g>
    </g>
   </g>
   <g id="text_35">
    <g clip-path="url(#p2b678fe623)">
     <!-- U -->
     <g style="fill: #ffffff" transform="translate(687.485161 136.058871) scale(0.13 -0.13)">
      <use xlink:href="#DejaVuSans-55"/>
     </g>
    </g>
   </g>
   <g id="text_36">
    <g clip-path="url(#p2b678fe623)">
     <!-- $\pi$/2, 0, $\pi$ -->
     <g style="fill: #ffffff" transform="translate(722.396348 55.529729) scale(0.08 -0.08)">
      <use xlink:href="#DejaVuSans-Oblique-3c0" transform="translate(0 0.78125)"/>
      <use xlink:href="#DejaVuSans-2f" transform="translate(60.205078 0.78125)"/>
      <use xlink:href="#DejaVuSans-32" transform="translate(90.271484 0.78125)"/>
      <use xlink:href="#DejaVuSans-2c" transform="translate(153.894531 0.78125)"/>
      <use xlink:href="#DejaVuSans-20" transform="translate(185.681641 0.78125)"/>
      <use xlink:href="#DejaVuSans-30" transform="translate(217.46875 0.78125)"/>
      <use xlink:href="#DejaVuSans-2c" transform="translate(281.091797 0.78125)"/>
      <use xlink:href="#DejaVuSans-20" transform="translate(312.878906 0.78125)"/>
      <use xlink:href="#DejaVuSans-Oblique-3c0" transform="translate(344.666016 0.78125)"/>
     </g>
    </g>
   </g>
   <g id="text_37">
    <g clip-path="url(#p2b678fe623)">
     <!-- U -->
     <g style="fill: #ffffff" transform="translate(733.83916 43.350872) scale(0.13 -0.13)">
      <use xlink:href="#DejaVuSans-55"/>
     </g>
    </g>
   </g>
   <g id="text_38">
    <g clip-path="url(#p2b678fe623)">
     <!-- $\pi$/2, 0, $\pi$ -->
     <g style="fill: #ffffff" transform="translate(722.396348 101.883729) scale(0.08 -0.08)">
      <use xlink:href="#DejaVuSans-Oblique-3c0" transform="translate(0 0.78125)"/>
      <use xlink:href="#DejaVuSans-2f" transform="translate(60.205078 0.78125)"/>
      <use xlink:href="#DejaVuSans-32" transform="translate(90.271484 0.78125)"/>
      <use xlink:href="#DejaVuSans-2c" transform="translate(153.894531 0.78125)"/>
      <use xlink:href="#DejaVuSans-20" transform="translate(185.681641 0.78125)"/>
      <use xlink:href="#DejaVuSans-30" transform="translate(217.46875 0.78125)"/>
      <use xlink:href="#DejaVuSans-2c" transform="translate(281.091797 0.78125)"/>
      <use xlink:href="#DejaVuSans-20" transform="translate(312.878906 0.78125)"/>
      <use xlink:href="#DejaVuSans-Oblique-3c0" transform="translate(344.666016 0.78125)"/>
     </g>
    </g>
   </g>
   <g id="text_39">
    <g clip-path="url(#p2b678fe623)">
     <!-- U -->
     <g style="fill: #ffffff" transform="translate(733.83916 89.704871) scale(0.13 -0.13)">
      <use xlink:href="#DejaVuSans-55"/>
     </g>
    </g>
   </g>
   <g id="text_40">
    <g clip-path="url(#p2b678fe623)">
     <!-- $\pi$, 0, $\pi$ -->
     <g style="fill: #ffffff" transform="translate(772.470347 55.529729) scale(0.08 -0.08)">
      <use xlink:href="#DejaVuSans-Oblique-3c0" transform="translate(0 0.78125)"/>
      <use xlink:href="#DejaVuSans-2c" transform="translate(60.205078 0.78125)"/>
      <use xlink:href="#DejaVuSans-20" transform="translate(91.992188 0.78125)"/>
      <use xlink:href="#DejaVuSans-30" transform="translate(123.779297 0.78125)"/>
      <use xlink:href="#DejaVuSans-2c" transform="translate(187.402344 0.78125)"/>
      <use xlink:href="#DejaVuSans-20" transform="translate(219.189453 0.78125)"/>
      <use xlink:href="#DejaVuSans-Oblique-3c0" transform="translate(250.976562 0.78125)"/>
     </g>
    </g>
   </g>
   <g id="text_41">
    <g clip-path="url(#p2b678fe623)">
     <!-- U -->
     <g style="fill: #ffffff" transform="translate(780.193159 43.350872) scale(0.13 -0.13)">
      <use xlink:href="#DejaVuSans-55"/>
     </g>
    </g>
   </g>
   <g id="text_42">
    <g clip-path="url(#p2b678fe623)">
     <!-- $\pi$, 0, $\pi$ -->
     <g style="fill: #ffffff" transform="translate(772.470347 101.883729) scale(0.08 -0.08)">
      <use xlink:href="#DejaVuSans-Oblique-3c0" transform="translate(0 0.78125)"/>
      <use xlink:href="#DejaVuSans-2c" transform="translate(60.205078 0.78125)"/>
      <use xlink:href="#DejaVuSans-20" transform="translate(91.992188 0.78125)"/>
      <use xlink:href="#DejaVuSans-30" transform="translate(123.779297 0.78125)"/>
      <use xlink:href="#DejaVuSans-2c" transform="translate(187.402344 0.78125)"/>
      <use xlink:href="#DejaVuSans-20" transform="translate(219.189453 0.78125)"/>
      <use xlink:href="#DejaVuSans-Oblique-3c0" transform="translate(250.976562 0.78125)"/>
     </g>
    </g>
   </g>
   <g id="text_43">
    <g clip-path="url(#p2b678fe623)">
     <!-- U -->
     <g style="fill: #ffffff" transform="translate(780.193159 89.704871) scale(0.13 -0.13)">
      <use xlink:href="#DejaVuSans-55"/>
     </g>
    </g>
   </g>
   <g id="text_44">
    <g clip-path="url(#p2b678fe623)">
     <!-- $\pi$/2, 0, $\pi$ -->
     <g style="fill: #ffffff" transform="translate(815.104346 101.883729) scale(0.08 -0.08)">
      <use xlink:href="#DejaVuSans-Oblique-3c0" transform="translate(0 0.78125)"/>
      <use xlink:href="#DejaVuSans-2f" transform="translate(60.205078 0.78125)"/>
      <use xlink:href="#DejaVuSans-32" transform="translate(90.271484 0.78125)"/>
      <use xlink:href="#DejaVuSans-2c" transform="translate(153.894531 0.78125)"/>
      <use xlink:href="#DejaVuSans-20" transform="translate(185.681641 0.78125)"/>
      <use xlink:href="#DejaVuSans-30" transform="translate(217.46875 0.78125)"/>
      <use xlink:href="#DejaVuSans-2c" transform="translate(281.091797 0.78125)"/>
      <use xlink:href="#DejaVuSans-20" transform="translate(312.878906 0.78125)"/>
      <use xlink:href="#DejaVuSans-Oblique-3c0" transform="translate(344.666016 0.78125)"/>
     </g>
    </g>
   </g>
   <g id="text_45">
    <g clip-path="url(#p2b678fe623)">
     <!-- U -->
     <g style="fill: #ffffff" transform="translate(826.547159 89.704871) scale(0.13 -0.13)">
      <use xlink:href="#DejaVuSans-55"/>
     </g>
    </g>
   </g>
   <g id="text_46">
    <g clip-path="url(#p2b678fe623)">
     <!-- $\pi$, 0, $\pi$ -->
     <g style="fill: #ffffff" transform="translate(911.532345 55.529729) scale(0.08 -0.08)">
      <use xlink:href="#DejaVuSans-Oblique-3c0" transform="translate(0 0.78125)"/>
      <use xlink:href="#DejaVuSans-2c" transform="translate(60.205078 0.78125)"/>
      <use xlink:href="#DejaVuSans-20" transform="translate(91.992188 0.78125)"/>
      <use xlink:href="#DejaVuSans-30" transform="translate(123.779297 0.78125)"/>
      <use xlink:href="#DejaVuSans-2c" transform="translate(187.402344 0.78125)"/>
      <use xlink:href="#DejaVuSans-20" transform="translate(219.189453 0.78125)"/>
      <use xlink:href="#DejaVuSans-Oblique-3c0" transform="translate(250.976562 0.78125)"/>
     </g>
    </g>
   </g>
   <g id="text_47">
    <g clip-path="url(#p2b678fe623)">
     <!-- U -->
     <g style="fill: #ffffff" transform="translate(919.255158 43.350872) scale(0.13 -0.13)">
      <use xlink:href="#DejaVuSans-55"/>
     </g>
    </g>
   </g>
   <g id="text_48">
    <g clip-path="url(#p2b678fe623)">
     <!-- $\pi$/2, 0, $\pi$ -->
     <g style="fill: #ffffff" transform="translate(907.812345 101.883729) scale(0.08 -0.08)">
      <use xlink:href="#DejaVuSans-Oblique-3c0" transform="translate(0 0.78125)"/>
      <use xlink:href="#DejaVuSans-2f" transform="translate(60.205078 0.78125)"/>
      <use xlink:href="#DejaVuSans-32" transform="translate(90.271484 0.78125)"/>
      <use xlink:href="#DejaVuSans-2c" transform="translate(153.894531 0.78125)"/>
      <use xlink:href="#DejaVuSans-20" transform="translate(185.681641 0.78125)"/>
      <use xlink:href="#DejaVuSans-30" transform="translate(217.46875 0.78125)"/>
      <use xlink:href="#DejaVuSans-2c" transform="translate(281.091797 0.78125)"/>
      <use xlink:href="#DejaVuSans-20" transform="translate(312.878906 0.78125)"/>
      <use xlink:href="#DejaVuSans-Oblique-3c0" transform="translate(344.666016 0.78125)"/>
     </g>
    </g>
   </g>
   <g id="text_49">
    <g clip-path="url(#p2b678fe623)">
     <!-- U -->
     <g style="fill: #ffffff" transform="translate(919.255158 89.704871) scale(0.13 -0.13)">
      <use xlink:href="#DejaVuSans-55"/>
     </g>
    </g>
   </g>
   <g id="text_50">
    <g clip-path="url(#p2b678fe623)">
     <!-- $\pi$/2, 0, $\pi$ -->
     <g style="fill: #ffffff" transform="translate(954.166344 55.529729) scale(0.08 -0.08)">
      <use xlink:href="#DejaVuSans-Oblique-3c0" transform="translate(0 0.78125)"/>
      <use xlink:href="#DejaVuSans-2f" transform="translate(60.205078 0.78125)"/>
      <use xlink:href="#DejaVuSans-32" transform="translate(90.271484 0.78125)"/>
      <use xlink:href="#DejaVuSans-2c" transform="translate(153.894531 0.78125)"/>
      <use xlink:href="#DejaVuSans-20" transform="translate(185.681641 0.78125)"/>
      <use xlink:href="#DejaVuSans-30" transform="translate(217.46875 0.78125)"/>
      <use xlink:href="#DejaVuSans-2c" transform="translate(281.091797 0.78125)"/>
      <use xlink:href="#DejaVuSans-20" transform="translate(312.878906 0.78125)"/>
      <use xlink:href="#DejaVuSans-Oblique-3c0" transform="translate(344.666016 0.78125)"/>
     </g>
    </g>
   </g>
   <g id="text_51">
    <g clip-path="url(#p2b678fe623)">
     <!-- U -->
     <g style="fill: #ffffff" transform="translate(965.609157 43.350872) scale(0.13 -0.13)">
      <use xlink:href="#DejaVuSans-55"/>
     </g>
    </g>
   </g>
   <g id="text_52">
    <g clip-path="url(#p2b678fe623)">
     <!-- $\pi$, 0, $\pi$ -->
     <g style="fill: #ffffff" transform="translate(957.886344 101.883729) scale(0.08 -0.08)">
      <use xlink:href="#DejaVuSans-Oblique-3c0" transform="translate(0 0.78125)"/>
      <use xlink:href="#DejaVuSans-2c" transform="translate(60.205078 0.78125)"/>
      <use xlink:href="#DejaVuSans-20" transform="translate(91.992188 0.78125)"/>
      <use xlink:href="#DejaVuSans-30" transform="translate(123.779297 0.78125)"/>
      <use xlink:href="#DejaVuSans-2c" transform="translate(187.402344 0.78125)"/>
      <use xlink:href="#DejaVuSans-20" transform="translate(219.189453 0.78125)"/>
      <use xlink:href="#DejaVuSans-Oblique-3c0" transform="translate(250.976562 0.78125)"/>
     </g>
    </g>
   </g>
   <g id="text_53">
    <g clip-path="url(#p2b678fe623)">
     <!-- U -->
     <g style="fill: #ffffff" transform="translate(965.609157 89.704871) scale(0.13 -0.13)">
      <use xlink:href="#DejaVuSans-55"/>
     </g>
    </g>
   </g>
   <g id="text_54">
    <g clip-path="url(#p2b678fe623)">
     <!-- $\pi$/2, 0, $\pi$ -->
     <g style="fill: #ffffff" transform="translate(1000.520344 101.883729) scale(0.08 -0.08)">
      <use xlink:href="#DejaVuSans-Oblique-3c0" transform="translate(0 0.78125)"/>
      <use xlink:href="#DejaVuSans-2f" transform="translate(60.205078 0.78125)"/>
      <use xlink:href="#DejaVuSans-32" transform="translate(90.271484 0.78125)"/>
      <use xlink:href="#DejaVuSans-2c" transform="translate(153.894531 0.78125)"/>
      <use xlink:href="#DejaVuSans-20" transform="translate(185.681641 0.78125)"/>
      <use xlink:href="#DejaVuSans-30" transform="translate(217.46875 0.78125)"/>
      <use xlink:href="#DejaVuSans-2c" transform="translate(281.091797 0.78125)"/>
      <use xlink:href="#DejaVuSans-20" transform="translate(312.878906 0.78125)"/>
      <use xlink:href="#DejaVuSans-Oblique-3c0" transform="translate(344.666016 0.78125)"/>
     </g>
    </g>
   </g>
   <g id="text_55">
    <g clip-path="url(#p2b678fe623)">
     <!-- U -->
     <g style="fill: #ffffff" transform="translate(1011.963156 89.704871) scale(0.13 -0.13)">
      <use xlink:href="#DejaVuSans-55"/>
     </g>
    </g>
   </g>
   <g id="text_56">
    <g clip-path="url(#p2b678fe623)">
     <!-- 0 -->
     <g transform="translate(1074.662843 176.546923) scale(0.104 -0.104)">
      <use xlink:href="#DejaVuSans-30"/>
     </g>
    </g>
   </g>
   <g id="text_57">
    <g clip-path="url(#p2b678fe623)">
     <!-- 1 -->
     <g transform="translate(1121.016842 176.546923) scale(0.104 -0.104)">
      <use xlink:href="#DejaVuSans-31"/>
     </g>
    </g>
   </g>
  </g>
 </g>
 <defs>
  <clipPath id="p2b678fe623">
   <rect x="7.2" y="7.2" width="1132.821982" height="203.957597"/>
  </clipPath>
 </defs>
</svg>
